<svg xmlns="http://www.w3.org/2000/svg" width="100" height="50" viewBox="0 0 100 50">
  <!-- Border -->
  <rect x="1" y="1" width="98" height="48" rx="2" ry="2" fill="white" stroke="black" stroke-width="1"/>
  
  <!-- Main content area - 60% -->
  <rect x="1" y="1" width="60" height="48" fill="black" fill-opacity="0.1"/>
  
  <!-- Content representation in main area -->
  <rect x="5" y="5" width="50" height="12" fill="black" fill-opacity="0.3"/>
  <rect x="5" y="20" width="50" height="3" fill="black" fill-opacity="0.2"/>
  <rect x="5" y="26" width="50" height="3" fill="black" fill-opacity="0.2"/>
  <rect x="5" y="32" width="50" height="3" fill="black" fill-opacity="0.2"/>
  <rect x="5" y="38" width="30" height="3" fill="black" fill-opacity="0.2"/>
  <rect x="5" y="44" width="50" height="3" fill="black" fill-opacity="0.15"/>
  
  <!-- Right panel - 40% -->
  <rect x="61" y="1" width="38" height="48" fill="black" fill-opacity="0.2"/>
  
  <!-- Content in right panel -->
  <rect x="65" y="5" width="30" height="12" fill="black" fill-opacity="0.3"/>
  <rect x="65" y="20" width="30" height="3" fill="black" fill-opacity="0.3"/>
  <rect x="65" y="26" width="30" height="3" fill="black" fill-opacity="0.3"/>
  <rect x="65" y="32" width="30" height="3" fill="black" fill-opacity="0.3"/>
  <rect x="65" y="38" width="30" height="8" fill="black" fill-opacity="0.25"/>
</svg>
